<svg width="20" height="21" viewBox="0 0 20 21" fill="none" xmlns="http://www.w3.org/2000/svg">
<path d="M12.9833 10.7997C12.9833 12.4497 11.6499 13.7831 9.99993 13.7831C8.34993 13.7831 7.0166 12.4497 7.0166 10.7997C7.0166 9.14974 8.34993 7.81641 9.99993 7.81641C11.6499 7.81641 12.9833 9.14974 12.9833 10.7997Z" stroke="#231F20" stroke-width="1.5" stroke-linecap="round" stroke-linejoin="round"/>
<path d="M9.99987 17.6911C12.9415 17.6911 15.6832 15.9577 17.5915 12.9577C18.3415 11.7827 18.3415 9.80775 17.5915 8.63275C15.6832 5.63275 12.9415 3.89941 9.99987 3.89941C7.0582 3.89941 4.31654 5.63275 2.4082 8.63275C1.6582 9.80775 1.6582 11.7827 2.4082 12.9577C4.31654 15.9577 7.0582 17.6911 9.99987 17.6911Z" stroke="#231F20" stroke-width="1.5" stroke-linecap="round" stroke-linejoin="round"/>
</svg>
